<svg id="Capa_1" data-name="Capa 1" xmlns="http://www.w3.org/2000/svg" viewBox="0 0 1248.29 300"><defs><style>.cls-1{fill:#35394c;}.cls-2{fill:#18a4ea;}.cls-3{fill:#1284d2;}.cls-4{fill:#0d64ba;}.cls-5{fill:#636c86;}</style></defs><title>prosaav</title><path class="cls-1" d="M408.39,102a40.86,40.86,0,0,1,40.94,42,39.12,39.12,0,0,1-12.81,28.23,40.8,40.8,0,0,1-28.93,11.51H372.46v60.35a1.15,1.15,0,0,1-1.3,1.3H355.45a1.15,1.15,0,0,1-1.3-1.3V103.21c0-.8.43-1.2,1.3-1.2Zm0,63.35a22.52,22.52,0,1,0,0-45H372.46v45Z"/><path class="cls-1" d="M572.33,243.53a1.33,1.33,0,0,1-.1,1.3,1.12,1.12,0,0,1-1.1.6H553.31a1.11,1.11,0,0,1-1.1-.7l-33.63-61.35.11-.1H494v60.55a1.16,1.16,0,0,1-1.31,1.3H477.05a1.15,1.15,0,0,1-1.3-1.3V103.31a1.15,1.15,0,0,1,1.3-1.3h52.64a40.68,40.68,0,0,1,40.74,41.83,39.45,39.45,0,0,1-9.51,24.62,41.25,41.25,0,0,1-22.32,13.61Zm-42.64-78.47a22.42,22.42,0,1,0,0-44.84H494v44.84Z"/><path class="cls-1" d="M659.3,102.11q29.63,0,50.64,21t21,50.64q0,29.63-21,50.64t-50.64,21q-29.62,0-50.64-21t-21-50.64q0-29.62,21-50.64T659.3,102.11Zm0,125a53.31,53.31,0,0,0,53.35-53.34,53.35,53.35,0,1,0-91.08,37.73A51.39,51.39,0,0,0,659.3,227.11Z"/><path class="cls-1" d="M803.32,162.76c1.27.53,2.24,1,2.9,1.3l3,1.3c2.33,1.14,4.47,2.2,6.4,3.2A72.56,72.56,0,0,1,828.34,177q13.9,11.81,13.91,28.72,0,18.42-12.51,29t-34,10.71a65.79,65.79,0,0,1-29.82-7,65.11,65.11,0,0,1-9.21-5.7c-1.07-.8-2.1-1.6-3.1-2.41a25.76,25.76,0,0,1-2-1.8,1.15,1.15,0,0,1,0-1.9L763,215.9a1.22,1.22,0,0,1,1.8,0l1.5,1.3c.67.54,1.4,1.07,2.2,1.61a46.72,46.72,0,0,0,27.22,8.4q28.34,0,28.33-21.52,0-8.3-7.21-14.51-6.11-5.3-20.92-11.81l-.3-.1-4.7-2.3-2.5-1.1-2.7-1.2c-2.14-1-4.07-2-5.81-2.9a61.8,61.8,0,0,1-11.41-7.51Q756,153.55,756,138.14q0-16.71,11.31-26.32t30.83-9.71a59.19,59.19,0,0,1,26.62,6.2,55.35,55.35,0,0,1,8.3,5.11c.94.67,1.87,1.37,2.81,2.1.66.6,1.26,1.17,1.8,1.7.73.6.73,1.24,0,1.9l-5.6,5.31-5.71,5.4a1.26,1.26,0,0,1-1.8.1c-.4-.4-.84-.8-1.3-1.2s-1.24-.93-1.9-1.4a38.47,38.47,0,0,0-5.61-3.1,40.81,40.81,0,0,0-17.61-3.91q-23.93,0-23.92,17.82,0,7,6.1,12.21,5.1,4.41,18.12,10l.3.2Z"/><path class="cls-1" d="M928.33,101.81a1.17,1.17,0,0,1,1.2.8l58.54,141a1.12,1.12,0,0,1-.1,1.2,1.24,1.24,0,0,1-1.1.6h-16a1.17,1.17,0,0,1-1.2-.8l-22.92-55.25H896l-22.92,55.25a1.17,1.17,0,0,1-1.2.8h-16a1.27,1.27,0,0,1-1.1-.6,1.14,1.14,0,0,1-.1-1.2l58.55-141a1.29,1.29,0,0,1,1.2-.8ZM939.43,172l-18-43.54L903.3,172Z"/><path class="cls-1" d="M1066.44,101.81a1.17,1.17,0,0,1,1.2.8l58.55,141a1.12,1.12,0,0,1-.1,1.2,1.25,1.25,0,0,1-1.1.6h-16a1.17,1.17,0,0,1-1.2-.8l-22.92-55.25h-50.75l-22.92,55.25a1.16,1.16,0,0,1-1.2.8H994a1.25,1.25,0,0,1-1.1-.6,1.12,1.12,0,0,1-.1-1.2l58.55-141a1.27,1.27,0,0,1,1.2-.8ZM1077.55,172l-18-43.54L1041.42,172Z"/><path class="cls-1" d="M1230.18,103.41a1.86,1.86,0,0,1,1.9-1.3h14.21a2,2,0,0,1,1.9,2.6l-47.94,139.42a1.72,1.72,0,0,1-1.8,1.3h-12.71a1.71,1.71,0,0,1-1.8-1.3L1136,104.71a2,2,0,0,1,1.9-2.6h14.21a1.7,1.7,0,0,1,1.8,1.3l38.14,111Z"/><path class="cls-1" d="M370.54,300c-8.74,0-12.48-4.79-12.48-15.88,0-11.26,4.33-15.76,12.1-15.76a25.18,25.18,0,0,1,7.82,1.43l-1,3.83a19,19,0,0,0-6.64-1.56c-4.83,0-7.89,2-7.89,12.06,0,10.46,3.23,12.18,8.19,12.18,1.51,0,3.4-.42,7-2l.93,3.78A20.31,20.31,0,0,1,370.54,300Z"/><path class="cls-1" d="M397.51,300c-7.56,0-12.18-4.33-12.18-15.71s4.79-15.93,12.18-15.93,12.23,4.37,12.23,15.84C409.74,295.34,405.2,300,397.51,300Zm0-28.11c-5,0-7.77,2.48-7.77,12.31s3,12.27,7.77,12.27,7.82-2.14,7.82-12.27C405.33,274.37,402.43,271.89,397.51,271.89Z"/><path class="cls-1" d="M437,299.58l-12-21.64a18.89,18.89,0,0,1-1.43-3.36h-.25c.09,1.09.17,2.19.17,3.36v21.64h-3.91v-30.8h4.67L436,289.92a18.57,18.57,0,0,1,1.43,3.23h.25c-.08-1.09-.13-2.22-.13-3.23V268.78h3.83v30.8Z"/><path class="cls-1" d="M460.48,300a26.72,26.72,0,0,1-9.12-1.64l1.05-3.7c5.21,1.52,6.43,1.68,8.49,1.68,3.45,0,5.25-1.76,5.25-4.87,0-2.39-1.13-3.57-3.78-4.62l-4.92-2c-4.24-1.68-6.25-4-6.25-7.78,0-5.37,4-8.74,10-8.74a31.26,31.26,0,0,1,7.68,1.05l-.88,3.7A29.39,29.39,0,0,0,460.9,272c-3.36,0-5.46,1.51-5.46,4.87,0,2.15,1,3.28,3.78,4.33l4.92,1.89c4,1.56,6.21,3.87,6.21,8.11C470.35,297.14,466.07,300,460.48,300Z"/><path class="cls-1" d="M488.92,272.36v27.22h-4.24V272.36H477v-3.58h19.74v3.58Z"/><path class="cls-1" d="M526,299.58a13.1,13.1,0,0,1-1.76.17c-2.23,0-3.32-.76-4.58-3.24l-4.79-9.45h-5.42v12.52H505.3v-30.8H515c5.84,0,9.62,2.57,9.62,8.83,0,4.41-2.1,7.18-5.79,8.44l4.41,8.4c.63,1.18.92,1.43,1.93,1.43a4.5,4.5,0,0,0,.84-.08Zm-11.22-27.43h-5.33v11.63h5c3.78,0,5.88-2.06,5.88-6C520.34,274.25,518.74,272.15,514.75,272.15Z"/><path class="cls-1" d="M545.33,300c-6.76,0-10.83-2.6-10.83-10.88V268.78h4.2v20.34c0,5.21,1.59,7.22,6.68,7.22,4.87,0,6.84-2,6.84-7.22V268.78h4.08v20.34C556.3,296.93,552.27,300,545.33,300Z"/><path class="cls-1" d="M578.52,300c-8.74,0-12.48-4.79-12.48-15.88,0-11.26,4.33-15.76,12.1-15.76a25.23,25.23,0,0,1,7.82,1.43l-1,3.83a19.06,19.06,0,0,0-6.64-1.56c-4.83,0-7.9,2-7.9,12.06,0,10.46,3.24,12.18,8.2,12.18,1.51,0,3.4-.42,7-2l.93,3.78A20.34,20.34,0,0,1,578.52,300Z"/><path class="cls-1" d="M605.78,300c-8.74,0-12.47-4.79-12.47-15.88,0-11.26,4.32-15.76,12.09-15.76a25.18,25.18,0,0,1,7.82,1.43l-1,3.83a19,19,0,0,0-6.64-1.56c-4.83,0-7.89,2-7.89,12.06,0,10.46,3.23,12.18,8.19,12.18,1.51,0,3.4-.42,7-2l.93,3.78A20.31,20.31,0,0,1,605.78,300Z"/><path class="cls-1" d="M622.21,299.58v-30.8h4.24v30.8Z"/><path class="cls-1" d="M648.55,300c-7.57,0-12.19-4.33-12.19-15.71s4.79-15.93,12.19-15.93,12.22,4.37,12.22,15.84C660.77,295.34,656.24,300,648.55,300Zm0-28.11c-5,0-7.77,2.48-7.77,12.31s3,12.27,7.77,12.27,7.81-2.14,7.81-12.27C656.36,274.37,653.46,271.89,648.55,271.89Zm-1.77-4.58v-.37l3.53-4.54h4.25l-4.46,4.91Z"/><path class="cls-1" d="M688,299.58l-12-21.64a18.89,18.89,0,0,1-1.43-3.36h-.25c.08,1.09.17,2.19.17,3.36v21.64H670.6v-30.8h4.66L687,289.92a19.36,19.36,0,0,1,1.42,3.23h.26c-.09-1.09-.13-2.22-.13-3.23V268.78h3.82v30.8Z"/><path class="cls-1" d="M715.13,299.58v-30.8h17.39v3.58H719.33v9.91h12.56v3.53H719.33V296H732.6l.34,3.57Z"/><path class="cls-1" d="M753.73,299.58v-30.8H758v30.8Z"/><path class="cls-1" d="M786.92,299.58l-12-21.64a18.89,18.89,0,0,1-1.43-3.36h-.25c.09,1.09.17,2.19.17,3.36v21.64h-3.91v-30.8h4.67l11.76,21.14a18.57,18.57,0,0,1,1.43,3.23h.25c-.08-1.09-.13-2.22-.13-3.23V268.78h3.83v30.8Z"/><path class="cls-1" d="M810.4,300a26.72,26.72,0,0,1-9.12-1.64l1.05-3.7c5.21,1.52,6.43,1.68,8.49,1.68,3.45,0,5.25-1.76,5.25-4.87,0-2.39-1.13-3.57-3.78-4.62l-4.92-2c-4.24-1.68-6.25-4-6.25-7.78,0-5.37,4-8.74,10-8.74a31.26,31.26,0,0,1,7.68,1.05l-.88,3.7a29.39,29.39,0,0,0-7.14-1.09c-3.36,0-5.46,1.51-5.46,4.87,0,2.15,1,3.28,3.78,4.33l4.92,1.89c4,1.56,6.21,3.87,6.21,8.11C820.27,297.14,816,300,810.4,300Z"/><path class="cls-1" d="M838.55,287.77H834v11.81h-4.2v-30.8h9.24c6.3,0,10.12,2.57,10.12,9.42C849.17,285.25,844.43,287.77,838.55,287.77Zm.37-15.5H834v12h4.49c3.41,0,6.35-1.05,6.35-6.14C844.85,273.32,842.07,272.27,838.92,272.27Z"/><path class="cls-1" d="M858.71,299.58v-30.8H876.1v3.58H862.91v9.91h12.56v3.53H862.91V296h13.27l.34,3.57Z"/><path class="cls-1" d="M897,300c-8.74,0-12.48-4.79-12.48-15.88,0-11.26,4.33-15.76,12.1-15.76a25.13,25.13,0,0,1,7.81,1.43l-1,3.83a19.06,19.06,0,0,0-6.64-1.56c-4.83,0-7.9,2-7.9,12.06,0,10.46,3.24,12.18,8.19,12.18,1.52,0,3.41-.42,7-2l.93,3.78A20.38,20.38,0,0,1,897,300Z"/><path class="cls-1" d="M924.28,300c-8.74,0-12.48-4.79-12.48-15.88,0-11.26,4.33-15.76,12.1-15.76a25.18,25.18,0,0,1,7.82,1.43l-1,3.83a19,19,0,0,0-6.64-1.56c-4.83,0-7.89,2-7.89,12.06,0,10.46,3.23,12.18,8.19,12.18,1.51,0,3.4-.42,7-2l.93,3.78A20.34,20.34,0,0,1,924.28,300Z"/><path class="cls-1" d="M940.71,299.58v-30.8H945v30.8Z"/><path class="cls-1" d="M967.05,300c-7.57,0-12.19-4.33-12.19-15.71s4.79-15.93,12.19-15.93,12.22,4.37,12.22,15.84C979.27,295.34,974.73,300,967.05,300Zm0-28.11c-5,0-7.78,2.48-7.78,12.31s3,12.27,7.78,12.27,7.81-2.14,7.81-12.27C974.86,274.37,972,271.89,967.05,271.89Zm-1.77-4.58v-.37l3.53-4.54h4.24l-4.45,4.91Z"/><path class="cls-1" d="M1006.53,299.58l-12-21.64a18.18,18.18,0,0,1-1.43-3.36h-.25c.08,1.09.17,2.19.17,3.36v21.64H989.1v-30.8h4.66l11.76,21.14a18.57,18.57,0,0,1,1.43,3.23h.26c-.09-1.09-.13-2.22-.13-3.23V268.78h3.82v30.8Z"/><path class="cls-1" d="M1042.91,299.58h-9.28v-30.8h9.2c7.73,0,13.44,3.32,13.44,14.84C1056.27,294.71,1051.31,299.58,1042.91,299.58Zm.08-27.31h-5.16v23.82h5c5.84,0,9-2.6,9-12.39C1051.82,274.2,1048.2,272.27,1043,272.27Z"/><path class="cls-1" d="M1066.14,299.58v-30.8h17.39v3.58h-13.19v9.91h12.56v3.53h-12.56V296h13.28l.33,3.57Z"/><path class="cls-1" d="M1115.29,300c-7.56,0-12.18-4.33-12.18-15.71s4.78-15.93,12.18-15.93,12.22,4.37,12.22,15.84C1127.51,295.34,1123,300,1115.29,300Zm0-28.11c-5,0-7.77,2.48-7.77,12.31s3,12.27,7.77,12.27,7.81-2.14,7.81-12.27C1123.1,274.37,1120.2,271.89,1115.29,271.89Z"/><path class="cls-1" d="M1147.42,299.58h-10v-30.8h8.87c6.22,0,9.87,2.06,9.87,7.86,0,3.36-1.43,6.05-4.7,7V284c3.73.76,5.75,3.28,5.75,7.23C1157.17,297.19,1153.35,299.58,1147.42,299.58Zm-1.17-27.48h-4.79v10.42h5.42c3.19,0,5.08-1.55,5.08-5.37C1152,273.7,1150.07,272.1,1146.25,272.1Zm.8,13.49h-5.59v10.67H1147c4.25,0,5.93-1.68,5.93-5.38C1152.93,287,1150.53,285.59,1147.05,285.59Z"/><path class="cls-1" d="M1187.16,299.58a13.1,13.1,0,0,1-1.76.17c-2.23,0-3.32-.76-4.58-3.24l-4.79-9.45h-5.42v12.52h-4.12v-30.8h9.67c5.84,0,9.62,2.57,9.62,8.83,0,4.41-2.1,7.18-5.8,8.44l4.41,8.4c.63,1.18.93,1.43,1.93,1.43a4.5,4.5,0,0,0,.84-.08ZM1176,272.15h-5.34v11.63h5c3.78,0,5.88-2.06,5.88-6C1181.53,274.25,1179.94,272.15,1176,272.15Z"/><path class="cls-1" d="M1212.54,299.58l-2.69-8.95h-10.59l-2.73,8.95h-4.24l9.58-30.8h5.58l9.46,30.8ZM1209,287.27,1205.27,275a12.06,12.06,0,0,1-.51-2.9h-.33a12.38,12.38,0,0,1-.55,2.9l-3.74,12.27Z"/><path class="cls-1" d="M1232.4,300a26.71,26.71,0,0,1-9.11-1.64l1-3.7c5.21,1.52,6.43,1.68,8.49,1.68,3.44,0,5.25-1.76,5.25-4.87,0-2.39-1.14-3.57-3.78-4.62l-4.92-2c-4.24-1.68-6.26-4-6.26-7.78,0-5.37,4-8.74,10-8.74a31.32,31.32,0,0,1,7.69,1.05l-.88,3.7a29.39,29.39,0,0,0-7.14-1.09c-3.37,0-5.47,1.51-5.47,4.87,0,2.15,1,3.28,3.78,4.33l4.92,1.89c4,1.56,6.22,3.87,6.22,8.11C1242.28,297.14,1238,300,1232.4,300Z"/><polygon class="cls-2" points="133.83 138.56 133.83 299.44 59.92 299.44 59.92 197.23 133.83 138.56"/><polygon class="cls-3" points="184.23 107.68 184.23 299.44 155.11 299.44 155.11 84.57 184.23 107.68"/><polygon class="cls-4" points="229.03 143.25 229.03 299.44 199.91 299.44 199.91 120.14 229.03 143.25"/><path class="cls-5" d="M144.47,0,0,122.53V299.44l59.36.56h.56V272.09l-.46-.09L28,271.7V135.5L144.47,36.71,261,135.5v164l28-.07V122.53Z"/></svg>